# xmcd CD database file
#
# Track frame offsets:
#	225
#	20563
#	39458
#	57479
#	73353
#	92333
#	110018
#	126166
#	145088
#	166419
#
# Disc length: 2455 seconds
#
# Revision: 3
# Processed by: cddbd v1.5.2PL0 Copyright (c) Steve Scherf et al.
# Submitted via: CDex 1.70beta3
#
DISCID=8f09940a
DTITLE=The Guess Who - Lonely One
DYEAR=1995
DGENRE=Hard Rock
TTITLE0=Lonely One
TTITLE1=Love's All That Matters Tonight
TTITLE2=Sweet Liberty
TTITLE3=Haunted Heart
TTITLE4=Anything For Love
TTITLE5=Still Feels Like Love
TTITLE6=The Razor's Edge
TTITLE7=I Feel Your Pain
TTITLE8=Amy
TTITLE9=Rock N' Roll Classic
EXTD=YEAR: 1995
EXTT0=
EXTT1=
EXTT2=
EXTT3=
EXTT4=
EXTT5=
EXTT6=
EXTT7=
EXTT8=
EXTT9=
PLAYORDER=
